PathFileType	4	(X/Y/Z)	C:/Users/beibeiliu/ov580/test_trc/User3\sequence.28_training_dense_right.trc
DataRate	CameraRate	NumFrames	NumMarkers	Units	OrigDataRate	OrigDataStartFrame	OrigNumFrames
120	120	10	19	mm	120	190	252
Frame#	Time	ThumbCMC			ThumbMCP			ThumbIP			ThumbTip			IndexMCP			IndexPIP			IndexTip			MiddleMCP			MiddlePIP			MiddleTip			RingMCP			RingPIP			RingTip			PinkyMCP			PinkyPIP			PinkyTip			BackHand1			BackHand2			BackHand3	
		X0	Y0	Z0	X1	Y1	Z1	X2	Y2	Z2	X3	Y3	Z3	X4	Y4	Z4	X5	Y5	Z5	X6	Y6	Z6	X7	Y7	Z7	X8	Y8	Z8	X9	Y9	Z9	X10	Y10	Z10	X11	Y11	Z11	X12	Y12	Z12	X13	Y13	Z13	X14	Y14	Z14	X15	Y15	Z15	X16	Y16	Z16	X17	Y17	Z17	X18	Y18	Z18	
189	1.575	149.123	32.7368	42.8701	138.951	40.299	10.6539	146.16	22.7503	-19.0316	159.909	-2.51986	-12.7758	154.4	34.6963	-28.086	124.106	15.4728	-31.4106	120.824	6.07901	-2.2779	160.434	15.7887	-35.504	131.659	-4.12473	-27.8133	135.94	-9.46602	9.61603	165.081	-3.69499	-28.6031	144.153	-18.504	-14.1595	156.334	-15.6678	16.905	178.58	-20.7287	-19.9867	154.086	-25.6274	-2.84682	165.45	-20.8984	21.6756	206.479	8.52094	15.1501	205.555	3.96579	46.1503	184.294	32.6747	36.4713	
190	1.58333	150.859	30.364	45.9517	140.83	39.5168	11.0403	144.76	23.278	-16.1908	160.455	-4.51804	-13.4245	153.682	33.8771	-30.5469	125.982	15.5908	-33.5279	122.408	4.02856	-1.64678	163.729	14.2788	-33.6747	134.349	-7.34606	-28.2752	139.725	-11.6514	10.6349	164.537	-5.95229	-27.7807	144.411	-20.0772	-14.0096	156.708	-13.2304	19.7055	177.362	-18.3769	-18.8633	153.399	-28.3267	-3.96534	165.624	-23.2872	22.1552	205.863	5.71558	12.268	205.642	0.999722	47.924	185.253	32.7739	35.8394	
191	1.59167	155.405	30.2788	39.6027	143.256	38.4272	13.4695	147.199	21.2817	-20.1459	155.959	-4.6125	-18.1175	156.17	26.6489	-34.2027	128.158	13.6194	-35.7063	120.64	5.46006	-5.94498	160.723	7.13963	-37.2229	134.599	-8.12288	-30.6903	137.25	-10.1137	9.89246	168.592	-10.3692	-27.6547	142.52	-21.2466	-13.5151	153.168	-13.1285	17.7024	173.79	-27.0123	-20.6242	151.82	-34.1295	-2.45341	164.381	-21.3992	23.1652	205.958	4.83577	13.2139	204.549	-1.71229	45.8277	189.126	26.1277	30.4519	
192	1.6	159.476	30.7655	38.8548	146.901	39.693	7.57369	151.562	19.441	-18.7764	154.621	-7.0289	-19.9609	159.11	26.8036	-34.6016	132.112	12.2676	-39.0256	123.039	6.45221	-4.16019	161.953	2.44761	-38.1648	131.743	-7.14644	-28.7838	136.485	-7.58777	10.5472	161.695	-14.0676	-29.0323	139.918	-25.4597	-14.2009	151.649	-12.0337	17.631	167.231	-28.2476	-19.6348	145.529	-33.7429	-1.50325	160.472	-29.1912	23.4184	204.365	-6.32956	11.8242	204.61	-8.03816	41.318	192.51	22.4403	33.4613	
193	1.60833	163.096	27.1938	39.5294	151.526	35.9762	3.32631	146.238	20.6826	-19.5897	150.439	-9.46666	-24.2783	166.352	22.3542	-34.8829	133.646	15.9006	-40.9777	124.983	14.2959	-6.29304	160.969	1.57159	-38.0891	132.166	-3.93801	-31.3851	138.963	-3.98468	8.15059	164.878	-18.6519	-28.1367	135.343	-20.3028	-13.3044	150.036	-12.9885	17.3868	165.365	-37.6484	-18.6185	140.513	-34.2657	-0.21079	158.926	-29.3576	23.6468	205.475	-16.5885	8.57153	205.281	-19.7586	44.6373	196.086	15.5184	32.0381	
194	1.61667	164.287	29.7245	34.2102	141.114	33.083	2.86248	130.5	16.7637	-22.8772	132.002	-9.96345	-26.6149	170.549	15.965	-40.4744	138.318	17.2934	-41.9009	135.392	14.4227	-10.1347	162.082	-3.36498	-40.2363	133.222	-5.91333	-27.6572	146.478	-3.18916	9.12246	161.563	-20.4567	-29.3358	135.065	-21.6905	-16.4549	146.247	-17.0076	14.8392	159.11	-33.2246	-19.8514	137.72	-33.9608	-4.58506	151.717	-25.6667	19.9511	201.704	-21.3322	9.05615	203.741	-23.4435	43.0359	200.514	11.7196	27.1626	
195	1.625	167.417	26.7939	30.1149	145.143	30.5862	1.12469	132.55	16.8201	-20.6767	134.22	-9.83212	-24.9033	170.937	15.7697	-41.3323	139.205	19.4366	-43.0848	138.387	21.4735	-7.62002	163.386	-0.111162	-40.9229	133.043	-1.44117	-29.1323	144.384	-5.10432	6.1631	159.668	-22.2964	-31.0776	134.001	-20.4291	-19.5596	144.931	-14.5025	13.1052	157.195	-35.5232	-21.5372	135.464	-33.4737	-5.42621	152.248	-23.7234	21.0094	200.024	-21.1533	11.6499	200.32	-25.7543	42.0784	199.774	7.47918	27.5641	
196	1.63333	168.041	27.5664	33.3738	157.953	34.3538	0.364547	151.48	17.2791	-22.554	149.612	-9.76248	-26.2406	167.284	19.3612	-42.2731	135.947	18.8435	-42.8887	126.759	19.1612	-10.3329	162.5	-0.0871832	-43.2533	131.216	-3.16838	-34.8739	138.713	-5.26706	5.56977	162.297	-17.4666	-33.844	133.496	-22.1488	-21.7822	144.076	-17.3643	10.3713	160.855	-32.3632	-22.179	136.469	-31.5315	-4.86567	148.924	-30.362	20.3845	203.203	-23.7149	6.97477	200.403	-25.478	43.2072	198.339	8.64591	25.6536	
197	1.64167	163.992	26.9861	35.7675	156.781	36.196	-0.50777	155.227	18.4568	-25.8417	155.062	-7.0023	-22.8986	166.593	23.3902	-39.3366	132.646	16.4585	-41.12	125.116	9.76541	-13.3285	168.945	5.93239	-42.583	135.929	-1.4357	-42.6752	135.802	-9.15115	0.53657	166.414	-13.222	-35.3574	137.987	-22.9434	-24.3417	143.451	-16.1089	5.82132	168.009	-35.0222	-25.9607	141.685	-32.5902	-9.97744	153.798	-27.4093	14.0769	203.705	-15.0745	6.15206	201.92	-17.1987	42.8458	197.592	17.3757	26.8203	
198	1.65	159.08	23.917	36.6944	148.88	34.8551	6.60311	152.998	19.8113	-23.4152	161.163	-9.82192	-25.6653	165.44	31.1663	-36.2017	134.016	14.4272	-42.3128	124.829	6.28019	-9.95386	171.256	7.43483	-44.3237	137.422	-0.875499	-43.2531	134.842	-11.5825	-4.80851	173.337	-10.8683	-36.1298	143.759	-22.3976	-28.2787	146.762	-18.2589	1.26563	175.086	-27.9921	-29.2058	150.36	-34.837	-14.2725	158.131	-31.3906	11.4389	206.724	-6.44554	9.47854	206.307	-9.75628	38.5781	193.574	18.5797	30.091	
